<svg xmlns="http://www.w3.org/2000/svg" viewBox="0 0 200 200"><g fill="#16e09f"><path d="M0 0h200v200H0zm27.5 57.367V174.5h145V55.75zm7.879-14.614a4.074 4.074 0 00-1.133-.478 5.072 5.072 0 00-1.302-.149 4.36 4.36 0 00-2.183.605 4.115 4.115 0 00-1.598 1.682 4.847 4.847 0 00-.562 2.337l.01 1.086c.006.797.229 1.53.667 2.201.438.67.966 1.16 1.583 1.467.764.384 1.62.572 2.568.563.812-.007 1.553-.154 2.223-.44a3.256 3.256 0 001.219-.87c.216-.253.323-.488.322-.707-.002-.219-.085-.408-.248-.568s-.35-.24-.564-.237a.676.676 0 00-.32.077c-.093.05-.222.16-.388.327-.268.279-.522.466-.76.562-.41.165-.912.25-1.506.255-.995.009-1.774-.242-2.339-.753-.564-.51-.85-1.151-.856-1.922l-.01-1.04c-.005-.645.144-1.204.447-1.675.303-.472.654-.813 1.053-1.025.4-.212.839-.32 1.318-.324.385-.003.77.064 1.154.2s.684.323.9.556c.11.118.184.287.223.505.065.328.163.551.295.67a.732.732 0 00.517.175.739.739 0 00.572-.251c.147-.166.219-.44.215-.826l-.012-1.36c-.003-.385-.08-.658-.23-.818a.745.745 0 00-.576-.237.745.745 0 00-.378.105 1.076 1.076 0 00-.321.307zm11.299 5.55a3.81 3.81 0 00-.532-1.882c-.35-.609-.863-1.091-1.54-1.447s-1.381-.531-2.11-.525a4.366 4.366 0 00-2.078.55 3.75 3.75 0 00-1.514 1.47c-.35.62-.52 1.25-.515 1.891.005.63.185 1.233.539 1.808.354.575.866 1.027 1.535 1.358a4.624 4.624 0 004.207-.045c.672-.347 1.175-.81 1.512-1.388.336-.579.501-1.175.496-1.79zm-1.602.022c.005.505-.236.977-.722 1.417-.486.439-1.088.661-1.807.668-.713.006-1.317-.206-1.81-.637-.493-.43-.742-.896-.746-1.396-.006-.61.232-1.148.712-1.615.48-.468 1.082-.705 1.806-.711.823-.008 1.49.278 2 .857.374.43.563.901.567 1.417zm10.66-6.82l-1.875.017c-.385.003-.66.08-.822.23s-.243.344-.241.584a.739.739 0 00.25.572c.166.147.442.218.827.215l.273-.002.018 1.992a4.876 4.876 0 00-1.193-.564 4.022 4.022 0 00-1.228-.18c-1.11.009-2.046.4-2.81 1.172-.764.773-1.142 1.7-1.132 2.784.009 1.036.384 1.899 1.124 2.588s1.712 1.028 2.915 1.017a4.656 4.656 0 002.377-.669l.004.39 1.875-.016c.385-.003.66-.08.822-.23s.243-.342.241-.576a.742.742 0 00-.255-.58c-.168-.147-.442-.219-.822-.215l-.274.002zm-1.542 6.81a1.832 1.832 0 01-.62 1.432c-.42.381-1.006.575-1.761.582-.76.006-1.35-.177-1.77-.551s-.633-.855-.638-1.444a2.24 2.24 0 01.68-1.662 2.32 2.32 0 011.69-.702c.672-.006 1.241.218 1.709.672s.704 1.012.71 1.674zm11.551.502l-.006-.68c-.004-.52-.091-.978-.262-1.373a4.682 4.682 0 00-.942-1.421c-.268-.264-.675-.507-1.221-.732a4.574 4.574 0 00-1.796-.328 4.305 4.305 0 00-2.862 1.084c-.824.713-1.232 1.632-1.222 2.756.01 1.058.401 1.945 1.176 2.662.774.717 1.802 1.07 3.083 1.06.745-.007 1.52-.101 2.326-.283.806-.181 1.312-.37 1.519-.564a.7.7 0 00.23-.533.788.788 0 00-.224-.568.72.72 0 00-.541-.222c-.156.001-.437.056-.843.163-.982.264-1.77.399-2.363.404-.724.006-1.3-.117-1.726-.368-.427-.252-.725-.585-.896-1zm-1.787-1.586l-4.75.041c.246-.46.566-.806.96-1.036.394-.23.862-.347 1.403-.352.547-.005 1.02.105 1.417.328.398.223.721.562.97 1.019zm16.258-3.674l.937-.008c.386-.003.66-.08.822-.23a.748.748 0 00.241-.584c-.002-.24-.085-.431-.25-.576s-.441-.215-.827-.211l-3.469.022c-.385.003-.659.08-.822.23-.163.15-.243.345-.24.584s.085.433.25.58.441.219.826.215l.93-.008.055 6.266-.93.008c-.385.003-.66.08-.822.23a.739.739 0 00-.241.576c.002.24.086.433.251.58s.44.219.826.215l7.586-.066-.027-3.117c-.004-.385-.08-.66-.23-.822a.739.739 0 00-.577-.241.748.748 0 00-.58.25c-.146.166-.218.442-.215.827l.013 1.516-3.453.03zm10.823-2.36l-1.906.017.015 1.695 1.906-.017zm.245 3.037l-2.89.025c-.385.004-.66.08-.822.23s-.243.342-.241.577c.002.24.087.432.255.58.168.146.442.218.822.215l1.289-.011.034 3.89-1.922.017c-.385.003-.66.08-.822.23s-.243.342-.241.576a.75.75 0 00.25.58c.166.147.442.219.827.215l5.445-.047c.386-.003.66-.08.822-.23a.739.739 0 00.241-.576c-.002-.24-.085-.433-.25-.58s-.441-.219-.827-.216l-1.922.017zm7.188-.063l-1.524.014c-.385.003-.66.08-.822.23s-.243.342-.241.576a.757.757 0 00.247.576c.163.15.414.223.752.22l.034 3.89c-.411.004-.68.045-.804.125a.766.766 0 00-.369.683.75.75 0 00.252.58c.165.146.44.218.826.215l1.82-.016c.385-.003.66-.08.822-.23a.739.739 0 00.241-.576.757.757 0 00-.389-.684c-.12-.077-.386-.114-.797-.11l-.026-2.977c.423-.467.773-.774 1.05-.92a2.1 2.1 0 01.971-.223c.49-.004.858.097 1.104.303.19.16.285.414.288.763l.027 3.024c-.339.003-.588.079-.748.229a.745.745 0 00-.238.576c.002.24.086.433.252.58.165.147.44.219.826.215l1.445-.012c.385-.004.66-.08.822-.23s.243-.342.241-.576c-.002-.24-.084-.433-.247-.58s-.413-.22-.752-.216l-.026-2.977c-.007-.76-.23-1.373-.672-1.838-.557-.583-1.31-.871-2.258-.863a3.41 3.41 0 00-1.143.198c-.35.128-.67.318-.96.57zm15.28 4.227l-.007-.68c-.004-.52-.091-.978-.262-1.373a4.682 4.682 0 00-.942-1.421c-.268-.264-.675-.507-1.221-.732a4.574 4.574 0 00-1.796-.328 4.305 4.305 0 00-2.862 1.084c-.824.713-1.232 1.632-1.222 2.757.01 1.057.401 1.944 1.176 2.661.774.717 1.802 1.07 3.083 1.06.745-.007 1.52-.101 2.326-.283.806-.181 1.312-.37 1.519-.564a.7.7 0 00.23-.533.788.788 0 00-.224-.568.72.72 0 00-.541-.222c-.156.001-.437.056-.843.163-.982.264-1.77.399-2.363.404-.724.006-1.3-.116-1.726-.368-.427-.251-.725-.585-.896-1zm-1.788-1.586l-4.75.041c.246-.46.566-.806.96-1.036s.862-.347 1.403-.352c.547-.005 1.02.105 1.417.328.398.223.721.562.97 1.019zm13.398 2.617c-.333-.002-.581.073-.744.225s-.243.346-.24.58c.001.24.085.434.25.58.166.148.441.22.826.216l3.22-.028c.827-.007 1.5-.136 2.02-.385.326-.159.674-.406 1.044-.74.37-.333.666-.763.89-1.289.225-.525.335-1.126.329-1.803l-.007-.766c-.005-.557-.071-1.028-.2-1.412a5.155 5.155 0 00-.568-1.16 5.144 5.144 0 00-.723-.915c-.305-.294-.707-.536-1.206-.724s-1.009-.28-1.53-.276l-3.351.022c-.386.003-.66.08-.822.23a.748.748 0 00-.242.584.745.745 0 00.248.572c.162.147.413.222.752.224zm1.602-.014l-.055-6.265 1.688-.015c.567-.005 1.04.102 1.42.32.38.218.723.622 1.03 1.213.197.379.297.82.301 1.326l.007.758c.005.588-.098 1.068-.308 1.44-.21.372-.525.68-.945.922-.321.185-.8.28-1.435.286zM140 50.903l1.875-.016c.385-.004.66-.08.822-.23a.739.739 0 00.241-.576.748.748 0 00-.251-.58c-.166-.147-.44-.22-.826-.216l-.274.003-.028-3.297c-.007-.745-.287-1.33-.84-1.755-.553-.425-1.327-.633-2.322-.624a7.21 7.21 0 00-1.116.107c-.411.07-.814.16-1.209.273-.296.086-.49.159-.584.22a.621.621 0 00-.217.24.745.745 0 00-.075.352c.002.24.078.436.228.588s.332.228.545.226c.156-.002.375-.037.655-.108.754-.194 1.368-.293 1.842-.297.578-.005.97.067 1.177.216.207.15.312.344.314.584l.003.382a10.535 10.535 0 00-1.68-.141c-1.209.01-2.153.306-2.833.888s-1.017 1.208-1.01 1.88c.004.552.277 1.053.817 1.504.54.452 1.24.673 2.1.666a6.16 6.16 0 001.319-.172 5.186 5.186 0 001.323-.492zm-.025-2.867l.006.687c-.378.264-.81.474-1.296.629-.485.155-.92.235-1.306.238-.453.004-.81-.079-1.073-.249-.141-.092-.213-.214-.214-.365-.002-.208.142-.415.432-.62.466-.323 1.025-.486 1.676-.492a9.308 9.308 0 011.775.172zm8.67-7.342l-1.906.017.015 1.695 1.906-.016zm.246 3.037l-2.89.026c-.386.003-.66.08-.823.23a.739.739 0 00-.241.576c.002.24.087.433.255.58.168.147.442.218.822.215l1.29-.011.033 3.89-1.922.017c-.385.004-.66.08-.822.23s-.243.342-.241.576c.002.24.086.433.251.58.165.147.44.219.826.216l5.445-.048c.386-.003.66-.08.823-.23a.739.739 0 00.24-.576.748.748 0 00-.25-.58c-.166-.147-.441-.219-.827-.215l-1.921.016zm9.582-3.122l-2.89.025c-.386.003-.66.08-.823.23s-.243.342-.24.576c.001.24.086.433.254.58.168.147.442.219.823.215l1.289-.01.06 6.929-1.922.016c-.385.004-.66.08-.822.23a.739.739 0 00-.241.577c.002.24.086.432.251.58s.44.218.826.215l5.445-.048c.386-.003.66-.08.823-.23s.243-.342.24-.576a.748.748 0 00-.25-.58c-.166-.147-.441-.219-.827-.215l-1.921.017zm7.994 10.008l-.89 1.805-1.594.014c-.386.003-.66.08-.822.23a.748.748 0 00-.241.584.739.739 0 00.25.572c.166.147.441.219.827.216l3.492-.031c.385-.003.66-.08.822-.23s.243-.342.241-.576a.772.772 0 00-.38-.684c-.127-.077-.39-.114-.79-.11l3.608-7.267c.276-.023.483-.11.622-.26a.76.76 0 00.207-.544.748.748 0 00-.251-.58c-.166-.147-.439-.219-.819-.215l-1.508.013c-.385.003-.659.08-.822.23s-.243.342-.24.576c.001.24.085.433.25.58s.42.219.764.216l-1.843 3.696-1.923-3.663c.355-.003.613-.08.776-.23a.739.739 0 00.24-.576.748.748 0 00-.25-.58c-.166-.147-.441-.219-.826-.215l-1.461.012c-.386.004-.66.08-.823.23a.748.748 0 00-.24.584.752.752 0 00.207.53c.137.145.336.231.596.26z"/><path d="M106 118.459L108.924 102 158 122.962v9.076L108.924 153 106 132.038l26-4.538zM68 127.5l26 4.538L91.076 153 42 132.038v-9.076L91.076 102 94 118.459zM42 94h116V77H42z"/></g></svg>