<svg xmlns="http://www.w3.org/2000/svg" viewBox="0 0 1920 800"><g fill="none" fill-rule="evenodd"><g fill="#16e09f" fill-rule="nonzero" transform="translate(675 50)"><path d="M0 0h570v570H0zm78.375 163.496v333.829h413.25V158.887zm22.455-41.65a11.63 11.63 0 00-3.23-1.363c-1.153-.294-2.39-.435-3.71-.424-2.198.02-4.27.594-6.22 1.724-1.95 1.13-3.469 2.729-4.557 4.794-1.088 2.066-1.621 4.286-1.6 6.66l.027 3.095a11.43 11.43 0 001.902 6.274c1.25 1.912 2.753 3.305 4.513 4.18 2.176 1.095 4.615 1.63 7.317 1.606 2.315-.02 4.427-.44 6.335-1.257 1.42-.607 2.578-1.433 3.474-2.48.617-.718.923-1.389.918-2.012-.006-.623-.24-1.163-.705-1.62-.464-.455-1-.68-1.609-.675a1.926 1.926 0 00-.91.219c-.267.143-.635.455-1.106.934-.765.793-1.488 1.326-2.168 1.6-1.169.47-2.599.712-4.291.727-2.835.025-5.057-.69-6.665-2.146-1.609-1.456-2.423-3.282-2.442-5.478l-.026-2.962c-.016-1.84.408-3.432 1.272-4.776s1.865-2.317 3.003-2.92c1.138-.604 2.39-.912 3.755-.924 1.098-.01 2.195.181 3.29.572s1.948.919 2.563 1.581c.314.339.526.82.636 1.442.186.934.466 1.57.84 1.908.374.338.866.504 1.474.499.668-.006 1.212-.245 1.63-.716.42-.471.624-1.256.615-2.354l-.034-3.874c-.01-1.099-.228-1.876-.655-2.333-.427-.456-.975-.681-1.643-.676a2.122 2.122 0 00-1.077.3c-.332.195-.638.487-.916.876zm32.201 15.818c-.016-1.84-.521-3.628-1.516-5.364-.995-1.735-2.458-3.11-4.39-4.125-1.93-1.015-3.935-1.513-6.013-1.495-2.063.018-4.037.54-5.92 1.565s-3.323 2.423-4.317 4.19c-.994 1.769-1.483 3.565-1.467 5.391.016 1.796.528 3.513 1.537 5.152 1.009 1.64 2.467 2.93 4.376 3.87s3.901 1.402 5.979 1.384c2.093-.018 4.096-.522 6.01-1.51 1.914-.99 3.35-2.309 4.307-3.957.958-1.65 1.43-3.35 1.414-5.1zm-4.564.062c.013 1.44-.673 2.786-2.058 4.038-1.384 1.251-3.1 1.886-5.149 1.904-2.033.017-3.753-.587-5.16-1.815-1.405-1.227-2.115-2.553-2.127-3.978-.015-1.736.662-3.271 2.03-4.604s3.086-2.009 5.149-2.027c2.345-.02 4.245.794 5.7 2.444 1.064 1.223 1.602 2.569 1.615 4.038zm30.38-19.436l-5.343.047c-1.099.01-1.88.227-2.344.655-.464.427-.693.982-.687 1.664.006.668.245 1.212.716 1.63.471.42 1.256.624 2.354.615l.78-.007.05 5.678c-1.12-.718-2.253-1.254-3.4-1.607a11.463 11.463 0 00-3.5-.515c-3.161.027-5.83 1.142-8.009 3.343-2.177 2.2-3.253 4.845-3.226 7.932.026 2.954 1.094 5.413 3.204 7.376 2.11 1.963 4.88 2.93 8.309 2.9a13.27 13.27 0 003.524-.498 13.504 13.504 0 003.25-1.41l.01 1.114 5.343-.046c1.099-.01 1.88-.228 2.344-.656.464-.427.693-.974.687-1.642-.006-.683-.248-1.234-.727-1.653-.479-.419-1.26-.623-2.343-.614l-.78.007zm-4.395 19.41c.014 1.633-.575 2.993-1.768 4.08-1.193 1.086-2.866 1.638-5.018 1.657-2.167.02-3.849-.504-5.046-1.57s-1.802-2.437-1.817-4.115c-.016-1.84.63-3.42 1.94-4.737 1.31-1.318 2.915-1.985 4.815-2.001 1.915-.017 3.538.622 4.87 1.916s2.008 2.885 2.024 4.77zm32.922 1.427l-.017-1.937c-.013-1.484-.261-2.788-.746-3.912-.712-1.612-1.607-2.962-2.685-4.051-.764-.75-1.924-1.446-3.481-2.085s-3.263-.952-5.118-.935c-3.088.026-5.806 1.056-8.156 3.088-2.35 2.032-3.511 4.65-3.483 7.857.026 3.013 1.143 5.542 3.35 7.586 2.208 2.044 5.137 3.05 8.788 3.018 2.123-.018 4.332-.286 6.629-.804 2.296-.517 3.739-1.053 4.328-1.607.441-.42.66-.926.655-1.52-.006-.653-.219-1.193-.638-1.62a2.051 2.051 0 00-1.542-.632c-.445.004-1.246.16-2.4.466-2.8.752-5.045 1.135-6.737 1.15-2.064.018-3.703-.331-4.92-1.048-1.215-.717-2.066-1.667-2.551-2.85zm-5.094-4.52l-13.537.118c.701-1.312 1.613-2.296 2.736-2.952s2.455-.99 3.999-1.003c1.558-.014 2.904.297 4.038.933 1.134.636 2.055 1.604 2.764 2.904zm46.335-10.469l2.671-.023c1.099-.01 1.88-.228 2.344-.655.464-.427.693-.982.687-1.665-.006-.683-.245-1.23-.716-1.641-.471-.412-1.256-.613-2.354-.603l-9.886.064c-1.099.01-1.88.228-2.344.655-.464.427-.692.982-.687 1.665.006.682.245 1.233.716 1.652.472.42 1.256.624 2.355.614l2.65-.023.155 17.857-2.65.023c-1.098.01-1.879.228-2.343.655-.464.427-.693.974-.687 1.642.006.683.245 1.234.716 1.653.471.419 1.256.624 2.354.614l21.62-.189-.078-8.883c-.01-1.099-.228-1.88-.655-2.344-.427-.464-.975-.693-1.643-.687-.682.006-1.233.245-1.652.716-.42.471-.624 1.256-.614 2.354l.037 4.32-9.84.086zm30.847-6.726l-5.433.047.042 4.832 5.433-.048zm.699 8.655l-8.238.072c-1.099.01-1.88.228-2.344.655s-.693.975-.687 1.643c.006.683.249 1.234.727 1.652s1.26.624 2.344.615l3.673-.032.097 11.087-5.477.048c-1.098.01-1.88.228-2.343.655-.464.427-.693.975-.688 1.643.006.683.245 1.233.716 1.652.472.42 1.256.624 2.355.614l15.518-.135c1.099-.01 1.88-.228 2.344-.655.464-.427.693-.975.687-1.643-.006-.682-.245-1.233-.716-1.652-.471-.42-1.256-.624-2.355-.614l-5.477.048zm20.483-.178l-4.341.038c-1.099.01-1.88.227-2.344.655-.464.427-.693.974-.687 1.642s.24 1.215.705 1.642c.464.426 1.178.635 2.143.627l.097 11.088c-1.173.01-1.936.128-2.29.354-.71.466-1.06 1.115-1.053 1.946.006.683.245 1.234.716 1.653.472.419 1.256.623 2.355.614l5.187-.046c1.099-.01 1.88-.228 2.344-.655.464-.427.693-.974.687-1.642-.008-.861-.377-1.511-1.108-1.95-.344-.22-1.101-.324-2.274-.314l-.074-8.483c1.206-1.332 2.204-2.205 2.994-2.62.79-.415 1.713-.628 2.767-.637 1.395-.012 2.444.276 3.147.863.538.456.812 1.18.82 2.175l.076 8.617c-.965.008-1.676.226-2.132.653-.457.427-.682.975-.676 1.643.006.682.244 1.233.716 1.652.47.42 1.256.624 2.354.614l4.12-.036c1.097-.01 1.879-.228 2.342-.655.464-.427.693-.974.688-1.642-.006-.683-.241-1.234-.705-1.653-.464-.42-1.178-.624-2.143-.616l-.074-8.483c-.019-2.167-.658-3.913-1.916-5.238-1.588-1.664-3.733-2.484-6.434-2.46-1.173.01-2.259.198-3.258.563a8.65 8.65 0 00-2.735 1.627zm43.547 12.044l-.017-1.937c-.013-1.484-.261-2.788-.746-3.912-.712-1.612-1.607-2.962-2.685-4.051-.764-.75-1.924-1.446-3.481-2.085-1.557-.64-3.263-.952-5.118-.935-3.088.027-5.806 1.056-8.156 3.088-2.35 2.032-3.511 4.65-3.483 7.857.026 3.013 1.143 5.542 3.35 7.586 2.208 2.044 5.137 3.05 8.789 3.018 2.122-.018 4.332-.286 6.628-.804 2.296-.517 3.739-1.053 4.328-1.607.442-.42.66-.926.655-1.52-.006-.653-.219-1.193-.638-1.62a2.051 2.051 0 00-1.542-.632c-.445.004-1.245.16-2.4.466-2.8.752-5.045 1.135-6.737 1.15-2.064.018-3.703-.331-4.92-1.048-1.215-.717-2.066-1.667-2.551-2.85zm-5.094-4.52l-13.537.118c.701-1.312 1.613-2.296 2.736-2.952 1.122-.655 2.455-.99 3.999-1.003 1.558-.014 2.905.297 4.038.933 1.134.636 2.055 1.604 2.764 2.904zm38.186 7.46c-.95-.006-1.657.208-2.121.642s-.693.986-.687 1.654c.006.683.244 1.234.716 1.652.47.42 1.256.624 2.354.615l9.173-.08c2.36-.021 4.28-.387 5.758-1.097.93-.454 1.923-1.156 2.976-2.108 1.053-.952 1.9-2.177 2.54-3.674.64-1.498.952-3.211.935-5.14l-.02-2.183c-.013-1.588-.203-2.93-.569-4.025s-.906-2.196-1.62-3.303c-.715-1.108-1.402-1.977-2.06-2.61-.87-.838-2.014-1.526-3.437-2.063s-2.875-.799-4.36-.786l-9.552.061c-1.098.01-1.879.228-2.343.655-.464.427-.693.982-.687 1.665.006.668.24 1.212.705 1.63.464.42 1.178.632 2.143.639zm4.564-.04l-.156-17.856 4.81-.042c1.617-.014 2.967.29 4.049.911 1.081.621 2.06 1.774 2.936 3.46.558 1.078.844 2.337.856 3.777l.02 2.16c.014 1.677-.278 3.045-.878 4.104-.6 1.06-1.497 1.936-2.693 2.629-.916.528-2.28.8-4.09.815zm37.155 4.24l5.344-.046c1.098-.01 1.88-.228 2.343-.655.464-.427.693-.975.687-1.643-.006-.682-.244-1.233-.716-1.652-.47-.42-1.256-.624-2.354-.614l-.78.007-.081-9.396c-.019-2.123-.816-3.79-2.393-5-1.577-1.211-3.783-1.804-6.618-1.78-.95.009-2.01.11-3.181.307s-2.32.454-3.445.776c-.844.244-1.398.453-1.664.626a1.771 1.771 0 00-.618.685c-.146.283-.217.618-.214 1.004.006.683.223 1.241.65 1.675a2.07 2.07 0 001.553.643c.445-.003 1.068-.105 1.868-.305 2.147-.553 3.896-.836 5.247-.848 1.648-.014 2.766.191 3.357.617.59.425.888.98.894 1.662l.01 1.09c-1.814-.28-3.411-.415-4.792-.403-3.443.03-6.134.874-8.072 2.531s-2.898 3.443-2.88 5.358c.013 1.574.79 3.003 2.33 4.288s3.535 1.918 5.984 1.897c1.128-.01 2.381-.173 3.759-.49a14.78 14.78 0 003.773-1.402zm-.071-8.17l.017 1.959c-1.077.751-2.308 1.349-3.692 1.791s-2.625.669-3.723.678c-1.292.012-2.31-.224-3.057-.708-.403-.263-.607-.61-.61-1.041-.006-.594.405-1.184 1.231-1.77 1.328-.917 2.92-1.384 4.775-1.4 1.544-.013 3.23.15 5.059.49zm24.711-20.924l-5.432.047.042 4.832 5.432-.047zm.7 8.656l-8.239.072c-1.098.01-1.88.227-2.343.655-.464.427-.693.974-.687 1.642.006.683.248 1.234.727 1.653.478.419 1.26.623 2.343.614l3.674-.032.097 11.088-5.478.047c-1.098.01-1.88.228-2.343.655-.464.428-.693.975-.687 1.643.006.683.244 1.234.716 1.653.471.419 1.256.623 2.354.614l15.519-.136c1.098-.01 1.88-.228 2.343-.655.464-.427.693-.974.687-1.642-.006-.683-.244-1.234-.716-1.653-.47-.419-1.256-.624-2.354-.614l-5.477.048zm27.31-8.9l-8.239.072c-1.098.01-1.88.227-2.343.655s-.693.974-.687 1.642c.006.683.248 1.234.727 1.653s1.26.623 2.343.614l3.674-.032.172 19.749-5.477.047c-1.098.01-1.88.228-2.343.655-.464.428-.693.975-.687 1.643.006.683.244 1.234.715 1.653.472.419 1.256.623 2.355.614l15.518-.136c1.099-.01 1.88-.228 2.344-.655.464-.427.693-.974.687-1.642-.006-.683-.245-1.234-.716-1.653-.471-.419-1.256-.624-2.354-.614l-5.478.048zm22.782 28.525l-2.538 5.143-4.542.04c-1.099.01-1.88.228-2.344.655s-.692.982-.686 1.665c.005.667.244 1.21.715 1.63.471.419 1.256.624 2.355.614l9.952-.087c1.098-.01 1.88-.228 2.343-.655.464-.427.693-.975.687-1.643-.007-.846-.369-1.496-1.085-1.95-.358-.22-1.109-.324-2.252-.314l10.285-20.708c.786-.067 1.377-.313 1.774-.74.397-.426.593-.944.588-1.552-.006-.683-.245-1.234-.716-1.653-.471-.419-1.248-.623-2.332-.614l-4.297.037c-1.098.01-1.88.228-2.343.656-.464.427-.693.974-.688 1.642.006.683.245 1.234.716 1.653.472.419 1.197.624 2.177.615l-5.252 10.534-5.48-10.44c1.01-.009 1.746-.227 2.21-.654s.693-.975.687-1.642c-.006-.683-.245-1.234-.716-1.653-.471-.42-1.256-.624-2.354-.614l-4.164.036c-1.098.01-1.88.228-2.343.655s-.693.982-.687 1.665c.005.594.202 1.097.592 1.509.39.412.956.66 1.699.742z"/><path d="M301.825 338.686l8.372-47.058 140.501 59.933v25.947l-140.501 59.934-8.372-59.934 74.436-12.973zm-108.086 25.849l74.436 12.973-8.372 59.934-140.501-59.934v-25.947l140.501-59.933 8.372 47.058zm-73.417-97.379h330.376v-48.945H120.322z"/></g><text fill="#19e09f" font-family="CourierNewPS-BoldMT, Courier New" font-size="50" font-weight="bold"><tspan x="591.437" y="712">A line of code of the day.</tspan></text></g></svg>