<svg viewBox="0 0 200 200" xmlns="http://www.w3.org/2000/svg"><g fill="none" fill-rule="evenodd"><path d="m0 0h200v200h-200z" fill="#000"/><g fill="#16e09f" fill-rule="nonzero"><path d="m0 0h200v200h-200zm27.5 57.3671161v117.1328839h145v-118.75zm7.8787871-14.6138799c-.3508557-.2156975-.7285601-.3751663-1.1331243-.4784112-.4045642-.1032448-.838603-.152844-1.3021293-.1487988-.7708079.0067267-1.4982351.2083929-2.1823035.6050045-.6840685.3966116-1.2169512.9572671-1.5986642 1.6819836-.3817131.7247164-.5689307 1.5037158-.5616586 2.3370215l.0094765 1.0858962c.006954.7968486.2295093 1.5306041.6676725 2.2012886.4381633.6706844.965882 1.1595825 1.5831721 1.466709.7638003.3839743 1.6196303.5718255 2.5675156.5635534.8124732-.0070903 1.5533978-.1541852 2.2227962-.4412891.4981655-.2126897.9045002-.5027021 1.2190165-.8700459.2165611-.2519007.3238856-.4872189.3219766-.7059616-.0019089-.2187428-.0842931-.4081334-.2471551-.5681774s-.3510574-.2391331-.564592-.2372696c-.1197877.0010454-.2263375.0267155-.3196527.0770112-.0933151.0502956-.2225741.1594996-.3877808.3276152-.2684155.278396-.521998.46551-.7607553.5613476-.4100358.1650436-.9119113.2501549-1.5056417.2553363-.9947587.0086811-1.7743149-.2423356-2.3386918-.7530575-.564377-.510722-.8499246-1.1514773-.8566513-1.9222851l-.0090674-1.039023c-.0056359-.6458119.1431393-1.2044176.4463303-1.6758337.3031909-.4714161.6543862-.8130321 1.0535966-1.0248583.3992104-.2118261.8383844-.3198283 1.3175352-.3240098.3854039-.0033634.7701136.0635938 1.1541406.2008735s.683826.3221686.8994059.5546724c.1104167.1188332.184807.2874596.2231731.5058842.0653613.3275688.1636652.5506755.2949146.6693269.1312494.1186515.3036389.1770446.5171735.1751811.234366-.0020453.4250484-.0857429.5720493-.2510953.1470009-.1653525.2188186-.4407265.2154552-.8261304l-.0118626-1.3593233c-.0033634-.3854039-.0799647-.6581806-.2298063-.8183382-.1498416-.1601577-.3419443-.2392126-.5763103-.2371674-.1354122.0011818-.2614128.0361365-.3780056.1048652-.1165927.0687288-.2237742.1712295-.3215475.3075052zm11.2988629 5.5500489c-.0056359-.6458119-.1829908-1.2731881-.5320699-1.8821473-.3490791-.6089591-.8624188-1.0914721-1.5400345-1.4475534s-1.3809843-.5309378-2.1101268-.5245746c-.7239344.0063176-1.4163661.1894487-2.077316.5493986-.6609499.35995-1.1658018.8500465-1.5145708 1.4703042-.348769.6202578-.5203557 1.2506791-.5147652 1.8912829.0054995.6301875.1852425 1.2328025.5392344 1.8078632.3539918.5750607.8657682 1.0276386 1.5353444 1.3577472.6695762.3301087 1.3689251.491979 2.0980676.4856159.7343507-.0064086 1.4372554-.1831204 2.1087353-.5301409.6714798-.3470204 1.1752683-.8097631 1.5113805-1.388242.3361122-.5784788.5014842-1.1749908.496121-1.7895538zm-1.6014333.0217883c.0044087.5051916-.2362693.9773573-.7220413 1.4165111-.485772.4391539-1.0880121.6618636-1.8067383.6681358-.713518.0062268-1.3169492-.2059612-1.8103115-.6365703-.4933623-.430609-.7422213-.8958983-.7465846-1.3958818-.0053178-.6093548.2321767-1.1479008.7124906-1.6156541.4803138-.4677532 1.0824289-.7047851 1.8063633-.7111028.8228894-.0071813 1.4894652.2786765 1.9997473.8575818.3735519.4290503.5625748.9013724.5670745 1.4169803zm10.6596422-6.8198439-1.8749286.0163622c-.3854039.0033634-.6594826.0799761-.8222443.2298404s-.243096.3445812-.2410053.5841566c.0020453.2343673.0857429.4250485.2510953.5720494.1653525.1470009.4407265.2188185.8261304.2154552l.2734271-.0023862.0173849 1.9921116c-.3928372-.251791-.7903238-.4397339-1.1924657-.5638341-.402142-.1241002-.8115332-.1843314-1.2281861-.1806953-1.1093383.0096811-2.0460567.4006789-2.8101833 1.1730053-.7641265.7723264-1.1414572 1.7001245-1.1320034 2.783422.0090447 1.036424.3837707 1.8990636 1.1241891 2.5879445s1.7121556 1.0280667 2.9152408 1.0175675c.4270692-.0037269.8393326-.0620137 1.2368024-.1748621.3974699-.1128484.777553-.2776282 1.1402608-.4943444l.0034088.3906102 1.8749286-.0163623c.3854039-.0033634.6594826-.079976.8222443-.2298403s.2431188-.3419772.2410735-.5763445c-.0020908-.2395754-.0871131-.4328493-.2550696-.5798274-.1679565-.1469782-.4420286-.2188072-.8222243-.2154893l-.2734271.0023862zm-1.5421883 6.8105923c.0049996.5728977-.2017804 1.049976-.6203463 1.4312492-.4185658.3812732-1.0054316.5752021-1.760615.5817925-.7603915.0066358-1.3505524-.1770213-1.7705005-.5509769s-.6324869-.8551873-.6376229-1.4437095c-.0056359-.645812.2213061-1.1998913.6808327-1.6622546.4595267-.4623633 1.0226039-.6964503 1.6892485-.702268.6718528-.0058632 1.2415336.2183384 1.7090596.6726114s.7041716 1.0121194.7099439 1.6735559zm11.5516849.5007754-.0059313-.6796617c-.0045451-.5208161-.0918741-.9784002-.2619895-1.372766-.2497377-.5655533-.5637792-1.0393886-.9421283-1.4215201-.2679342-.2632982-.6750216-.5071484-1.2212742-.7315578-.5462527-.2244095-1.1448801-.3337719-1.7959003-.3280905-1.0832975.0094537-2.0372034.3706528-2.8617465 1.0836081-.8245431.7129552-1.2318999 1.6319005-1.2220825 2.7568633.0092266 1.0572567.4010947 1.9444869 1.1756161 2.6617173.7745215.7172303 1.8023706 1.0702498 3.0835782 1.0590688.744767-.0064995 1.5200101-.1005069 2.3257525-.2820252.8057423-.1815183 1.3119283-.3695346 1.518573-.5640546.1549722-.1471921.2315482-.3249486.2297301-.5332751-.0019998-.2291591-.0765719-.4186178-.2237185-.5683818-.1471466-.1497641-.3274845-.2237132-.5410191-.2218498-.1562448.0013636-.4370268.0558987-.8423543.1636071-.9821154.2637901-1.7700264.3982739-2.3637568.4034553-.7239343.0063177-1.299239-.1162695-1.7259312-.3677651-.4266923-.2514957-.7251825-.5848377-.8954797-1.0000362zm-1.7873461-1.5860256-4.7498191.0414511c.2459908-.4604999.5659048-.8057492.9597479-1.0357585.3938432-.2300093.8615821-.3473756 1.4032308-.3521025.546857-.0047724 1.019177.1043902 1.4169744.3274909.3977973.2231008.7210828.562737.969866 1.018919zm16.2576267-3.6732626.9374643-.0081811c.3854039-.0033634.6594826-.0799761.8222444-.2298404.1627617-.1498643.243096-.3445812.2410052-.5841566-.0020907-.2395754-.0857997-.4315587-.2511294-.5759555s-.4406924-.2149124-.8260963-.2115491l-3.4686861.022458c-.3854039.0033634-.6594826.0799761-.8222443.2298404-.1627618.1498643-.243096.3445812-.2410053.5841566s.0858111.4328606.2511635.5798615.4407265.2188186.8261304.2154552l.9296521-.0081129.0546772 6.2653864-.9296521.008113c-.3854039.0033633-.6594826.079976-.8222444.2298403-.1627617.1498643-.2431187.3419772-.2410734.5763444.0020907.2395754.0858111.4328607.2511635.5798616s.4407265.2188185.8261304.2154552l7.5856486-.066199-.0272022-3.1170688c-.0033634-.3854039-.0799761-.6594826-.2298404-.8222443-.1498643-.1627618-.3419772-.2431188-.5763444-.2410735-.2395754.0020908-.4328607.0858111-.5798615.2511635-.1470009.1653524-.2188186.4407265-.2154552.8261304l.0132261 1.5155673-3.4529935.0301338zm10.823566-2.3601671-1.9061774.0166349.0147942 1.695248 1.9061775-.016635zm.2452622 3.0370378-2.8905149.0252252c-.3854039.0033633-.6594827.079976-.8222444.2298403s-.2431187.3419772-.2410734.5763445c.0020907.2395754.0871131.4328493.2550696.5798274.1679565.1469782.4420285.2188072.8222243.2154893l1.2890134-.0112491.0339517 3.8904769-1.9218019.0167713c-.3854039.0033634-.6594826.0799761-.8222443.2298404s-.2431187.3419771-.2410735.5763444c.0020908.2395754.0858111.4328606.2511635.5798615.1653525.1470009.4407265.2188186.8261304.2154552l5.4451052-.0475187c.3854039-.0033633.6594826-.079976.8222443-.2298403.1627618-.1498643.2431188-.3419772.2410735-.5763445-.0020908-.2395754-.0858111-.4328606-.2511635-.5798615s-.4407265-.2188186-.8261304-.2154552l-1.9218018.0167713zm7.1872263-.0627219-1.5233795.0132943c-.3854039.0033634-.6594826.079976-.8222443.2298403s-.2431187.3419772-.2410735.5763445c.0020453.2343672.0844523.4263618.2472234.5759895.162771.1496277.413418.2229633.7519485.220009l.0339517 3.8904768c-.4114447.0035907-.6793208.044992-.8036342.1242052-.2485815.1636346-.3715997.3912771-.3690544.6829341.0020907.2395754.085811.4328606.2511635.5798615.1653524.1470009.4407264.2188186.8261303.2154552l1.8202432-.015885c.3854039-.0033634.6594827-.0799761.8222444-.2298404.1627617-.1498642.2431187-.3419771.2410734-.5763444-.0026361-.3020733-.132234-.5301154-.3887974-.6841332-.1204695-.077077-.3864226-.1138197-.7978673-.1102291l-.0259751-2.9764491c.4230241-.4672533.7732242-.7737034 1.050611-.9193595.2773867-.145656.6009647-.2200964.9707447-.2233235.489567-.0042723.857646.0966851 1.104247.3028753.188903.1598168.284876.4141947.287921.7631415l.026384 3.0233224c-.338531.0029543-.587871.0793511-.748029.2291927-.160157.1498415-.239212.3419431-.237167.5763103.002091.2395754.085811.4328607.251164.5798616.165352.1470008.440726.2188185.82613.2154552l1.445257-.0126126c.385404-.0033634.659483-.0799761.822245-.2298404s.243119-.3419771.241073-.5763444c-.00209-.2395754-.084509-.432872-.247257-.5798956s-.413384-.2190572-.751915-.2161029l-.025975-2.9764492c-.006635-.7603915-.230738-1.3730363-.672314-1.837953-.557201-.5837044-1.309733-.8714162-2.257618-.8631441-.411445.0035906-.7923918.0694168-1.1428519.1974806-.35046.1280638-.6704229.3183626-.9598983.5708983zm15.2796494 4.2261975-.005931-.6796616c-.004545-.5208161-.091874-.9784002-.26199-1.372766-.249738-.5655534-.563779-1.0393887-.942128-1.4215202-.267934-.2632982-.675022-.5071484-1.221274-.7315578-.546253-.2244095-1.14488-.3337719-1.795901-.3280905-1.083297.0094538-2.037203.3706529-2.861746 1.0836081-.824543.7129553-1.2319 1.6319005-1.222083 2.7568633.009227 1.0572567.401095 1.9444869 1.175617 2.6617173.774521.7172304 1.80237 1.0702498 3.083578 1.0590689.744767-.0064995 1.52001-.100507 2.325752-.2820253.805743-.1815183 1.311928-.3695346 1.518573-.5640546.154972-.147192.231548-.3249486.22973-.5332751-.001999-.229159-.076572-.4186178-.223718-.5683818-.147147-.1497641-.327485-.2237132-.541019-.2218497-.156245.0013635-.437027.0558986-.842355.163607-.982115.2637901-1.770026.3982739-2.363756.4034553-.723935.0063177-1.299239-.1162695-1.725932-.3677651-.426692-.2514957-.725182-.5848377-.895479-1.0000362zm-1.787346-1.5860256-4.749819.0414511c.245991-.4604998.565905-.8057492.959748-1.0357585s.861582-.3473756 1.403231-.3521025c.546856-.0047723 1.019177.1043902 1.416974.327491.397797.2231007.721083.562737.969866 1.0189189zm13.398352 2.6175535c-.333367-.0022993-.581417.0727841-.744156.2252525s-.243085.3458833-.241039.5802505c.00209.2395754.085811.4328607.251163.5798616.165352.1470008.440726.2188185.82613.2154552l3.218628-.0280886c.828097-.0072267 1.501476-.1355024 2.020156-.3848311.326751-.1591082.674869-.4056426 1.044367-.7396106.369497-.333968.666537-.7636555.891128-1.2890756.224592-.52542.333931-1.1266515.328023-1.8037124l-.006682-.7655958c-.004863-.5572733-.071473-1.0280594-.199832-1.4123725-.12836-.3843131-.317935-.7706904-.568731-1.1591436-.250797-.3884531-.491748-.6936507-.722861-.9156017-.304664-.2942291-.706521-.5355207-1.205582-.7238821s-1.008992-.2802681-1.529808-.275723l-3.351503.0214353c-.385404.0033634-.659483.079976-.822245.2298403-.162761.1498643-.243096.3445813-.241005.5841567.002046.2343672.084441.4250598.247189.5720834.162749.1470236.413407.2216612.751983.2239151zm1.601502-.0139761-.054677-6.2653864 1.687435-.014726c.56769-.0049542 1.041289.101593 1.420813.3196446.379523.2180517.722907.6226185 1.030162 1.2137127.196019.3785141.296232.8203603.300641 1.3255519l.006613.7577837c.005136.5885222-.097448 1.0685975-.307756 1.4402405-.210307.3716429-.525342.6790882-.945112.9223451-.321315.1851036-.799663.2804265-1.435059.2859715zm13.036917 1.487852 1.874929-.0163622c.385404-.0033634.659483-.0799761.822244-.2298404.162762-.1498643.243119-.3419771.241074-.5763444-.002091-.2395754-.085811-.4328607-.251164-.5798615-.165352-.1470009-.440726-.2188186-.82613-.2154552l-.273427.0023861-.02877-3.2967494c-.0065-.7447671-.286351-1.3295809-.839561-1.7544591-.553211-.4248782-1.327184-.6329737-2.321943-.6242925-.333322.0029088-.705416.038709-1.116293.1074017-.410876.0686926-.813742.1594509-1.208607.272276-.296138.0859213-.490816.1592368-.584041.2199488-.093223.060712-.165444.1407716-.216662.2401811-.051218.0994096-.076236.2168187-.075054.3522309.002091.2395754.078022.4355329.227795.5878783s.331425.2275852.544959.2257217c.156245-.0013635.374689-.037125.655339-.1072854.753547-.1940842 1.367283-.2931928 1.841225-.2973289.578106-.005045.970674.0670521 1.177714.2162934.207041.1492414.311605.3436468.313695.5832223l.003341.3827979c-.636305-.0986182-1.196628-.1458132-1.680987-.1415862-1.208294.0105446-2.152351.3065518-2.832202.8880304s-1.01684 1.2081348-1.010977 1.8799876c.004818.5520651.277432 1.0536064.817849 1.5046391.540418.4510326 1.240289.6727959 2.099636.6652965.39582-.0034543.835437-.0606777 1.318864-.1716719.483428-.1109942.924717-.2750061 1.323882-.4920404zm-.02502-2.8670783.005999.6874738c-.377923.263726-.8097.473229-1.295345.6285153-.485645.1552864-.921163.23461-1.306567.2379734-.45311.0039542-.810614-.0788658-1.072522-.2484626-.141438-.0925197-.212815-.214296-.214134-.3653327-.001818-.2083265.142213-.4153183.432098-.6209819.465962-.3217884 1.024445-.4855208 1.675465-.4912022.541648-.0047269 1.133311.0526115 1.775006.1720169zm8.670639-7.3415692-1.906178.016635.014794 1.6952479 1.906178-.0166349zm.245262 3.0370379-2.890515.0252251c-.385404.0033634-.659483.0799761-.822245.2298404-.162761.1498643-.243118.3419772-.241073.5763444.002091.2395754.087113.4328493.25507.5798275.167956.1469781.442028.2188072.822224.2154892l1.289013-.011249.033952 3.8904768-1.921802.0167714c-.385404.0033633-.659482.079976-.822244.2298403s-.243119.3419772-.241074.5763444c.002091.2395754.085811.4328607.251164.5798616.165352.1470009.440726.2188185.82613.2154552l5.445105-.0475187c.385404-.0033634.659483-.0799761.822245-.2298404.162761-.1498643.243118-.3419772.241073-.5763444-.002091-.2395754-.085811-.4328607-.251163-.5798616-.165353-.1470008-.440727-.2188185-.826131-.2154552l-1.921802.0167714zm9.582488-3.1228034-2.890515.0252252c-.385404.0033634-.659482.079976-.822244.2298403s-.243119.3419772-.241073.5763445c.00209.2395754.087113.4328493.255069.5798274.167957.1469782.442029.2188072.822224.2154893l1.289014-.011249.060472 6.9294236-1.921802.0167713c-.385404.0033634-.659482.0799761-.822244.2298404-.162762.1498642-.243119.3419771-.241074.5763444.002091.2395754.085812.4328606.251164.5798615s.440726.2188186.82613.2154552l5.445106-.0475187c.385403-.0033634.659482-.079976.822244-.2298403s.243119-.3419772.241073-.5763445c-.00209-.2395754-.085811-.4328606-.251163-.5798615-.165353-.1470009-.440727-.2188186-.826131-.2154552l-1.921801.0167713zm7.993896 10.0087471-.890535 1.804715-1.593689.013908c-.385404.0033633-.659483.079976-.822244.2298403-.162762.1498643-.243096.3445812-.241006.5841566.002046.2343661.085743.4250485.251096.5720494.165352.1470009.440726.2188185.82613.2154552l3.492055-.0304747c.385404-.0033634.659482-.0799761.822244-.2298404s.243119-.3419783.241073-.5763444c-.00259-.2968652-.129584-.52493-.380985-.6842014-.125677-.0770312-.389026-.113797-.790055-.1102972l3.608604-7.2661423c.275851-.0232416.483437-.1096909.622761-.2593507.139325-.1496598.208055-.3312542.206191-.5447888-.002091-.2395754-.085811-.4328607-.251163-.5798616-.165353-.1470008-.438123-.2188412-.818319-.2155233l-1.507755.0131579c-.385404.0033634-.659482.0799761-.822244.2298404s-.243119.3419772-.241073.5763444c.00209.2395754.085811.4328607.251163.5798616s.419896.2190003.763633.2160006l-1.842818 3.6959096-1.922664-3.6630488c.354155-.0030906.61261-.079567.775371-.2294313.162762-.1498642.243119-.3419771.241074-.5763444-.002091-.2395754-.085811-.4328606-.251164-.5798615-.165352-.1470009-.440726-.2188186-.82613-.2154552l-1.460882.0127489c-.385404.0033634-.659483.079976-.822244.2298403-.162762.1498643-.243096.3445813-.241006.5841567.001818.2083264.071069.3848104.207754.5294572.136684.1446468.335364.2314571.596045.2604335z"/><path d="m106 118.459 2.924-16.459 49.076 20.962v9.076l-49.076 20.962-2.924-20.962 26-4.538z"/><path d="m68 127.5 26 4.538-2.924 20.962-49.076-20.962v-9.076l49.076-20.962 2.924 16.459z"/><path d="m42 94h116v-17h-116z"/></g></g></svg>
