<svg height="800" viewBox="0 0 1920 800" width="1920" xmlns="http://www.w3.org/2000/svg"><g fill="none" fill-rule="evenodd"><g fill="#16e09f" fill-rule="nonzero" transform="translate(675 50)"><path d="m0 0h570v570h-570zm78.375 163.496281v333.828719h413.25v-338.4375zm22.454543-41.649558c-.9999386-.614738-2.0763959-1.069224-3.229404-1.363472-1.153008-.294248-2.3900185-.435605-3.7110686-.424076-2.1968023.019171-4.2699699.593919-6.2195649 1.724262-1.9495951 1.130343-3.4683109 2.728212-4.5561931 4.793654-1.0878822 2.065441-1.6214525 4.28559-1.6007268 6.660511l.0270079 3.094804c.0198189 2.271019.6541015 4.362222 1.9028668 6.273673 1.2487653 1.91145 2.7527637 3.30481 4.5120404 4.18012 2.1768309 1.094327 4.6159464 1.629703 7.3174195 1.606128 2.3155484-.020208 4.4271837-.439428 6.3349688-1.257674 1.419772-.606166 2.577826-1.432702 3.474197-2.479631.617199-.717917.923074-1.388574.917634-2.011991-.005441-.623417-.240236-1.16318-.704392-1.619305-.464157-.456126-1.000514-.68153-1.609088-.676219-.341395.00298-.645062.07614-.91101.219482-.265948.143343-.634336.454574-1.105175.933703-.764984.793429-1.487694 1.326704-2.1681528 1.599841-1.1686018.470375-2.5989471.712942-4.2910786.727709-2.8350625.024741-5.0567976-.690657-6.6652719-2.146214-1.6084743-1.455558-2.4222849-3.281711-2.4414561-5.478513l-.0258421-2.961215c-.0160624-1.840564.4079472-3.43259 1.2720413-4.776126s1.8650009-2.317142 3.0027504-2.920846c1.1377496-.603705 2.3893955-.911511 3.7549753-.923429 1.0984012-.009585 2.1948238.181243 3.2893008.57249s1.948904.918181 2.5633067 1.580816c.314688.338675.5267.81926.636043 1.44177.18628.933571.466446 1.569426.840507 1.907582.374061.338157.865371.504577 1.473944.499266.667944-.005829 1.211388-.244367 1.630341-.715622.418952-.471254.623633-1.25607.614047-2.354471l-.033808-3.874071c-.009586-1.098402-.2279-1.875815-.654948-2.332264-.427049-.45645-.974541-.681756-1.642485-.675927-.385924.003368-.745026.102988-1.077315.298865-.33229.195877-.637757.488004-.916411.87639zm32.20176 15.81764c-.016063-1.840565-.521524-3.628587-1.5164-5.36412-.994875-1.735534-2.457893-3.110696-4.389098-4.125528-1.931205-1.014831-3.935805-1.513172-6.013861-1.495037-2.063213.018005-4.036644.539929-5.920351 1.565786s-3.322535 2.422632-4.316527 4.190367c-.993991 1.767735-1.483014 3.564435-1.467081 5.390156.015674 1.796035.527942 3.513487 1.536818 5.15241 1.008877 1.638923 2.46744 2.92877 4.375732 3.86958s3.901436 1.40214 5.979493 1.384005c2.092899-.018264 4.096178-.521893 6.009895-1.510901 1.913718-.989009 3.349515-2.307825 4.307435-3.95649.957919-1.648665 1.42923-3.348724 1.413945-5.100228zm-4.564085.062096c.012564 1.439796-.673368 2.785468-2.057818 4.037057-1.38445 1.251588-3.100834 1.886311-5.149204 1.904187-2.033527.017746-3.753305-.58699-5.159388-1.814225-1.406082-1.227236-2.115331-2.553311-2.127766-3.978264-.015156-1.736661.661704-3.271517 2.030598-4.604614s3.084922-2.008637 5.148135-2.026643c2.345235-.020466 4.244976.794228 5.69928 2.444108 1.064623 1.222794 1.603339 2.568912 1.616163 4.038394zm30.37998-19.436555-5.343547.046632c-1.098401.009586-1.879525.227932-2.343396.655045-.463871.427114-.692824.982057-.686865 1.664847.005829.667947.244367 1.211388.715622 1.63034.471254.418953 1.25607.623633 2.354471.614048l.779268-.006801.049546 5.677518c-1.119586-.717604-2.252422-1.253241-3.398527-1.606927-1.146104-.353685-2.31287-.525344-3.50033-.514981-3.161614.02759-5.831262 1.141934-8.009022 3.343065-2.177761 2.20113-3.253154 4.845354-3.22621 7.932752.025777 2.953809 1.093746 5.412332 3.203939 7.375642 2.110192 1.963311 4.879643 2.92999 8.308436 2.900068 1.217147-.010622 2.392098-.17674 3.524887-.498358 1.132789-.321617 2.216026-.79124 3.249743-1.408881l.009715 1.113239 5.343547-.046632c1.098401-.009586 1.879525-.227932 2.343396-.655045.463871-.427114.692888-.974635.687059-1.642582-.005958-.68279-.248272-1.233621-.726948-1.652508-.478676-.418888-1.259781-.623601-2.343339-.614145l-.779267.006801zm-4.395237 19.410188c.014249 1.632759-.575074 2.992432-1.767987 4.07906-1.192912 1.086629-2.86548 1.639326-5.017752 1.658109-2.167116.018912-3.849075-.504511-5.045927-1.570284-1.196852-1.065774-1.802588-2.437284-1.817225-4.114572-.016062-1.840564.630722-3.41969 1.940373-4.737426 1.309651-1.317735 2.914421-1.984883 4.814358-2.001464 1.914781-.01671 3.538371.622265 4.87082 1.916943s2.006889 2.88454 2.02334 4.769634zm32.922302 1.42721-.016904-1.937036c-.012954-1.484326-.261841-2.78844-.74667-3.912383-.711753-1.611827-1.606771-2.962257-2.685066-4.051332-.763612-.7504-1.923811-1.445373-3.480631-2.08494s-3.262909-.95125-5.118316-.935058c-3.087398.026943-5.80603 1.056361-8.155978 3.088283-2.349948 2.031923-3.510914 4.650917-3.482935 7.857061.026296 3.013181 1.14312 5.541787 3.350506 7.585894 2.207386 2.044106 5.136756 3.050212 8.788198 3.018346 2.122586-.018523 4.332029-.286445 6.628395-.803772 2.296365-.517327 3.738995-1.053174 4.327933-1.607556.441671-.419497.659912-.926103.654731-1.519833-.0057-.653104-.21823-1.193061-.637598-1.619889-.419368-.426827-.933331-.637582-1.541905-.632271-.445297.003886-1.245526.159311-2.400709.46628-2.799029.751802-5.044576 1.13508-6.736707 1.149847-2.063213.018006-3.702832-.331368-4.918904-1.04813-1.216073-.716763-2.06677-1.666788-2.552117-2.850103zm-5.093936-4.520173-13.536985.118136c.701074-1.312425 1.612829-2.296386 2.735282-2.951912s2.455509-.990021 3.999208-1.003492c1.558542-.013601 2.904654.297512 4.038377.933349 1.133722.635837 2.055086 1.6038 2.764118 2.903919zm46.334236-10.468798 2.671773-.023317c1.098401-.009585 1.879526-.227931 2.343397-.655045.46387-.427113.692823-.982056.686865-1.664846-.005959-.68279-.24453-1.229942-.715719-1.641473-.47119-.411531-1.255974-.612501-2.354375-.602915l-9.885755.064005c-1.098401.009586-1.879526.227932-2.343396.655045-.463871.427114-.692824.982057-.686865 1.664847.005958.68279.244561 1.233653.715815 1.652605.471255.418953 1.256071.623633 2.354472.614047l2.649509-.023122.15583 17.856352-2.649509.023122c-1.098401.009585-1.879525.227931-2.343396.655045-.463871.427113-.692889.974635-.68706 1.642581.005959.68279.244562 1.233653.715816 1.652606.471255.418952 1.256071.623633 2.354472.614047l21.619099-.188667-.077527-8.883646c-.009585-1.098401-.227932-1.879526-.655045-2.343396-.427113-.463871-.974635-.692889-1.642581-.68706-.68279.005959-1.233653.244562-1.652606.715816-.418952.471255-.623633 1.256071-.614047 2.354472l.037694 4.319367-9.841031.085881zm30.847163-6.726477-5.432606.04741.042164 4.831457 5.432606-.04741zm.698997 8.655558-8.237967.071892c-1.098401.009586-1.879526.227932-2.343397.655045s-.692888.974635-.687059 1.642582c.005959.682789.248272 1.23362.726948 1.652508s1.259782.6236 2.34334.614144l3.673688-.03206.096762 11.087859-5.477135.047799c-1.098401.009585-1.879526.227931-2.343396.655045-.463871.427113-.692889.974635-.68706 1.642581.005959.68279.244562 1.233653.715816 1.652606.471255.418952 1.256071.623633 2.354472.614047l15.518549-.135428c1.098402-.009586 1.879526-.227932 2.343397-.655045.463871-.427114.692888-.974635.687059-1.642582-.005958-.68279-.244561-1.233653-.715816-1.652605-.471254-.418953-1.25607-.623633-2.354471-.614048l-5.477136.047799zm20.483595-.178757-4.341631.037888c-1.098401.009586-1.879526.227932-2.343397.655045-.463871.427114-.692888.974635-.687059 1.642582s.240689 1.215131.704586 1.64157c.463898.426439 1.178242.635446 2.143054.627026l.096762 11.087859c-1.172617.010233-1.936064.128227-2.290357.353985-.708458.466358-1.059059 1.115139-1.051805 1.946362.005958.68279.244561 1.233653.715815 1.652605.471255.418953 1.256071.623633 2.354472.614047l5.187693-.045272c1.098401-.009586 1.879526-.227932 2.343397-.655045.46387-.427113.692888-.974635.687059-1.642582-.007513-.860909-.376867-1.510829-1.108073-1.949779-.343338-.21967-1.101304-.324386-2.273922-.314153l-.074029-8.48288c1.205619-1.331672 2.203689-2.205055 2.994242-2.620175.790552-.415119 1.71275-.627274 2.766621-.636471 1.395266-.012177 2.444291.275552 3.147106.863194.538373.455478.811894 1.180455.820573 2.174953l.075195 8.616469c-.964812.00842-1.675432.226151-2.131881.653199-.456449.427049-.681756.974538-.675927 1.642485.005959.68279.244562 1.233653.715816 1.652605.471255.418953 1.256071.623633 2.354472.614047l4.118983-.035945c1.098402-.009586 1.879526-.227932 2.343397-.655045.463871-.427114.692888-.974635.687059-1.642582-.005958-.68279-.240851-1.233685-.704683-1.652703-.463833-.419017-1.178145-.624313-2.142957-.615893l-.074029-8.48288c-.018912-2.167116-.657604-3.913154-1.916096-5.238166-1.588023-1.663557-3.732739-2.483536-6.434212-2.459961-1.172617.010233-2.258315.197838-3.257127.56282-.998811.364982-1.910705.907333-2.73571 1.62706zm43.547001 12.044663-.016904-1.937036c-.012954-1.484326-.261841-2.788441-.74667-3.912383-.711753-1.611827-1.606771-2.962258-2.685066-4.051333-.763612-.750399-1.923811-1.445372-3.480631-2.084939-1.556821-.639567-3.262909-.95125-5.118316-.935058-3.087398.026943-5.80603 1.05636-8.155978 3.088283-2.349948 2.031922-3.510914 4.650916-3.482935 7.85706.026296 3.013182 1.14312 5.541788 3.350506 7.585894 2.207386 2.044107 5.136756 3.050212 8.788198 3.018347 2.122586-.018524 4.332029-.286445 6.628394-.803772 2.296366-.517327 3.738996-1.053174 4.327934-1.607556.44167-.419497.659912-.926103.65473-1.519834-.005699-.653103-.21823-1.193061-.637597-1.619888-.419368-.426828-.933331-.637583-1.541905-.632272-.445298.003886-1.245526.159311-2.40071.46628-2.799028.751802-5.044575 1.135081-6.736706 1.149848-2.063213.018005-3.702832-.331368-4.918904-1.048131-1.216073-.716762-2.066771-1.666787-2.552118-2.850103zm-5.093936-4.520173-13.536985.118135c.701074-1.312424 1.612829-2.296385 2.735282-2.951911 1.122453-.655527 2.455509-.990021 3.999208-1.003493 1.558542-.013601 2.904654.297513 4.038376.93335 1.133723.635837 2.055086 1.6038 2.764119 2.903919zm38.185304 7.460027c-.950098-.006553-1.65704.207435-2.120846.64197s-.692791.985767-.686962 1.653714c.005959.68279.244561 1.233653.715816 1.652605.471254.418953 1.25607.623633 2.354472.614047l9.173088-.080052c2.360078-.020596 4.279207-.386182 5.757445-1.096769.931239-.453458 1.923378-1.156081 2.976445-2.10789 1.053068-.951809 1.899631-2.176418 2.539716-3.673865.640086-1.497447.951704-3.210957.934864-5.140581l-.019042-2.181948c-.01386-1.588228-.203699-2.929969-.569523-4.025261s-.906112-2.196468-1.620882-3.303559c-.71477-1.107092-1.401482-1.976905-2.060155-2.609465-.868293-.838553-2.013584-1.526234-3.435908-2.063064s-2.875627-.798765-4.359953-.785811l-9.551784.061091c-1.098401.009585-1.879525.227931-2.343396.655045-.463871.427113-.692824.982056-.686865 1.664846.005829.667947.240657 1.211421.704489 1.630438.463833.419017 1.178209.631734 2.143151.638158zm4.564279-.039832-.15583-17.856351 4.809192-.041969c1.617915-.01412 2.967673.28954 4.049315.910987 1.081641.621447 2.060286 1.774463 2.935962 3.459081.558656 1.078765.844263 2.338027.856828 3.777823l.018847 2.159684c.014637 1.677288-.277728 3.045503-.877104 4.104685-.599377 1.059182-1.497225 1.935401-2.69357 2.628684-.915748.527545-2.279041.799215-4.089918.815018zm37.155216 4.240379 5.343546-.046633c1.098401-.009585 1.879526-.227932 2.343397-.655045.46387-.427113.692888-.974635.687059-1.642582-.005959-.682789-.244562-1.233652-.715816-1.652605-.471255-.418952-1.256071-.623633-2.354472-.614047l-.779267.0068-.081995-9.395736c-.018524-2.122586-.816099-3.789305-2.392749-5.000208-1.576651-1.210903-3.782474-1.803975-6.617537-1.779234-.949968.008291-2.010436.110321-3.181434.306095s-2.319164.454435-3.444531.775987c-.843994.244876-1.398826.453825-1.664515.626854-.265688.173029-.471516.401199-.617488.684516-.145971.283317-.217272.617933-.213904 1.003858.005959.68279.222362 1.241269.649216 1.675453.426854.434185.94456.648618 1.553134.643307.445298-.003886 1.067863-.105806 1.867715-.305763 2.147609-.55314 3.896756-.8356 5.247493-.847387 1.647601-.014379 2.766418.191098 3.356483.616436.590066.425338.888073.979393.894032 1.662183l.009521 1.090974c-1.813469-.281062-3.410391-.415567-4.790814-.403521-3.443636.030053-6.134201.873673-8.071776 2.530887s-2.897993 3.443184-2.881283 5.357965c.013731 1.573385.79068 3.002778 2.33087 4.288221s3.534824 1.917469 5.983961 1.896095c1.128088-.009844 2.380997-.172931 3.758765-.489265 1.377767-.316333 2.635442-.783767 3.773062-1.402315zm-.071309-8.171174.017098 1.959301c-1.077081.751619-2.307647 1.348702-3.691735 1.791268s-2.625314.668639-3.723716.678224c-1.291363.01127-2.310248-.224767-3.056686-.708118-.4031-.263681-.606525-.610744-.610281-1.041198-.005182-.593731.405307-1.183657 1.231478-1.769799 1.327991-.917097 2.919667-1.383734 4.775074-1.399926 1.543699-.013471 3.229938.149943 5.058768.490248zm24.71132-20.923472-5.432605.04741.042163 4.831456 5.432606-.047409zm.698997 8.655558-8.237967.071892c-1.098401.009585-1.879526.227931-2.343397.655045-.463871.427113-.692888.974635-.687059 1.642581.005959.68279.248272 1.233621.726948 1.652509.478676.418887 1.259782.6236 2.34334.614144l3.673688-.03206.096762 11.087859-5.477135.047798c-1.098401.009586-1.879526.227932-2.343396.655045-.463871.427114-.692889.974635-.68706 1.642582.005959.68279.244562 1.233653.715816 1.652605.471255.418953 1.256071.623633 2.354472.614048l15.518549-.135429c1.098402-.009585 1.879526-.227931 2.343397-.655045.463871-.427113.692888-.974634.687059-1.642581-.005958-.68279-.244561-1.233653-.715816-1.652606-.471254-.418952-1.25607-.623632-2.354471-.614047l-5.477136.047798zm27.310093-8.899989-8.237968.071891c-1.098401.009586-1.879525.227932-2.343396.655045s-.692888.974635-.687059 1.642582c.005958.68279.248272 1.23362.726948 1.652508s1.259781.623601 2.343339.614144l3.673688-.032059.172346 19.748857-5.477135.047798c-1.098401.009586-1.879526.227932-2.343397.655045-.46387.427114-.692888.974635-.687059 1.642582.005959.68279.244562 1.233653.715816 1.652605.471255.418953 1.256071.623633 2.354472.614048l15.518549-.135429c1.098402-.009585 1.879526-.227931 2.343397-.655045.463871-.427113.692888-.974635.687059-1.642581-.005958-.68279-.244561-1.233653-.715816-1.652606-.471254-.418952-1.25607-.623633-2.354471-.614047l-5.477136.047798zm22.782604 28.524929-2.538025 5.143437-4.542015.039638c-1.098401.009586-1.879525.227932-2.343396.655045s-.692824.982057-.686865 1.664846c.005829.667944.244367 1.211389.715622 1.630341.471254.418953 1.25607.623633 2.354471.614047l9.952356-.086853c1.098401-.009585 1.879525-.227931 2.343396-.655045.463871-.427113.692888-.974638.687059-1.642581-.007383-.846066-.369316-1.496051-1.085808-1.949974-.358181-.219539-1.108726-.324321-2.251657-.314347l10.284522-20.708506c.786175-.066238 1.377793-.312619 1.774868-.739149.397076-.42653.592956-.944075.587645-1.552648-.005959-.68279-.244562-1.233653-.715816-1.652606-.471255-.418952-1.248649-.623697-2.332207-.614241l-4.297102.0375c-1.098401.009586-1.879526.227932-2.343397.655045-.46387.427113-.692888.974635-.687059 1.642582.005959.682789.244562 1.233652.715816 1.652605.471255.418952 1.196703.624151 2.176354.615602l-5.252031 10.533342-5.479592-10.439689c1.009342-.008808 1.745937-.226766 2.209808-.653879s.692888-.974635.687059-1.642582c-.005959-.68279-.244562-1.233653-.715816-1.652605-.471254-.418953-1.25607-.623633-2.354472-.614047l-4.163513.036334c-1.098401.009586-1.879525.227932-2.343396.655045s-.692824.982057-.686865 1.664846c.005181.593731.202545 1.09671.592096 1.508953.389552.412244.95579.659653 1.69873.742236z"/><path d="m301.825 338.686 8.372-47.058 140.501 59.933v25.947l-140.501 59.934-8.372-59.934 74.436-12.973z"/><path d="m193.739 364.535 74.436 12.973-8.372 59.934-140.501-59.934v-25.947l140.501-59.933 8.372 47.058z"/><path d="m120.322 267.156h330.376v-48.945h-330.376z"/></g><text fill="#19e09f" font-family="CourierNewPS-BoldMT, Courier New" font-size="50" font-weight="bold"><tspan x="591.437" y="712">A line of code of the day.</tspan></text></g></svg>